PathFileType	4	(X/Y/Z)	/Users/visionmauri/Downloads/pro-gait-dataset/4_0_1_f_1_Sports2D/4_0_1_f_1_Sports2D_m_person00.trc
DataRate	CameraRate	NumFrames	NumMarkers	Units	OrigDataRate	OrigDataStartFrame	OrigNumFrames
30.0	30.0	8	22	m	30.0	245	654
Frame#	Time	Hip			RHip			RKnee			RAnkle			RBigToe			RSmallToe			RHeel			LHip			LKnee			LAnkle			LBigToe			LSmallToe			LHeel			Neck			Head			Nose			RShoulder			RElbow			RWrist			LShoulder			LElbow			LWrist			
		X1	Y1	Z1	X2	Y2	Z2	X3	Y3	Z3	X4	Y4	Z4	X5	Y5	Z5	X6	Y6	Z6	X7	Y7	Z7	X8	Y8	Z8	X9	Y9	Z9	X10	Y10	Z10	X11	Y11	Z11	X12	Y12	Z12	X13	Y13	Z13	X14	Y14	Z14	X15	Y15	Z15	X16	Y16	Z16	X17	Y17	Z17	X18	Y18	Z18	X19	Y19	Z19	X20	Y20	Z20	X21	Y21	Z21	X22	Y22	Z22
245	8.179173047473201	1.2776591014877754	0.3916206104033957	0.0301	1.2957240611696688	0.4172990080040088	0.0301	1.391073270239081	0.33906637432318487	0.129	1.4568113045494209	0.24431789423173828	0.023	1.492288664031268	0.21815641545641798	0.2179	1.4985616983530528	0.22269380753277165	0.1804	1.4631895114205724	0.2229171621725884	-0.0119	1.2546263552506074	0.3752988880122892	0.0301	1.3437210047777322	0.2756957684016577	0.129	1.4161572378346754	0.19115766659858272	0.023	1.414123244515848	0.17542020421666407	0.2179	1.4098095612486812	0.1632492334889317	0.1804	1.4316204390034852	0.17554306018394525	-0.0119	1.161362379372383	0.5121872688835735	0.0008	1.118411349529104	0.5590391078607133	0.0655	1.1401492101105297	0.5333428423316074	0.1076	1.2057223623862041	0.5320563991304567	-0.01275	1.2919413514797833	0.5056231827892088	0.0702	1.35081421923629	0.46508303959584696	0.1076	1.1433242077163943	0.4648526267507003	-0.01275	1.1731876023315586	0.3796241022105145	0.0702	1.2184575988099922	0.3257689606298205	0.1076
246	8.212557427258805	1.2768069738880437	0.3916044350001951	0.0301	1.2946737771018093	0.4175387680093641	0.0301	1.3893807434992305	0.34027097980589655	0.129	1.4552503068029645	0.24426645394777305	0.023	1.489415299826427	0.2198146188427481	0.2179	1.4951682201061356	0.22409204437700864	0.1804	1.4614934874006686	0.2231279542793138	-0.0119	1.2543427256295367	0.3757534826387509	0.0301	1.3430021422468073	0.2760832217400647	0.129	1.4160732013241097	0.19120397050775442	0.023	1.4144082863155565	0.17535757920532039	0.2179	1.4107443628858183	0.16299768708504725	0.1804	1.431488129319872	0.17546078425515768	-0.0119	1.1595856748962545	0.5122137191335987	0.0008	1.1168401814676003	0.5593718456621796	0.0655	1.1389663681684994	0.5335847039414695	0.1076	1.2039412762958965	0.5314567268187331	-0.01275	1.288299788616096	0.5040564234275264	0.0702	1.3485060294930198	0.4631420425220261	0.1076	1.141816844768665	0.46510017534915893	-0.01275	1.1722504843945658	0.3797445474114898	0.0702	1.2184869274617447	0.32837887842943714	0.1076
247	8.24594180704441	1.2766505029307043	0.39164379582770026	0.0301	1.294743998100481	0.41736484242484323	0.0301	1.387474360599098	0.34050902003730305	0.129	1.4539143532462993	0.24458809899086417	0.023	1.4879091355948877	0.22197066836968074	0.2179	1.4934191510451809	0.22460030144824167	0.1804	1.4604155092260143	0.22354074687353662	-0.0119	1.2540568351235388	0.3760703839741019	0.0301	1.3426681648880887	0.27596537671902444	0.129	1.4158797791169204	0.19125845758466897	0.023	1.4144646280255952	0.17494931524896565	0.2179	1.4111225047391258	0.1623962839456182	0.1804	1.4313179495657629	0.1753499744864193	-0.0119	1.1582982288294033	0.5118649597363912	0.0008	1.115276291193138	0.5592192251666452	0.0655	1.1372990665968465	0.5336187845015246	0.1076	1.2020436500149954	0.5310328597923646	-0.01275	1.2851526248473102	0.5025764599637075	0.0702	1.3459296966720091	0.4613350414083503	0.1076	1.140712461130657	0.46502075012277233	-0.01275	1.171591657191248	0.38039268307865637	0.0702	1.2180257857427887	0.33133083564089927	0.1076
248	8.279326186830016	1.2768335369648305	0.3913977159654465	0.0301	1.2948313582583197	0.41667426991159756	0.0301	1.3855857057847838	0.34010503768435674	0.129	1.452570388664577	0.24566590803516794	0.023	1.485990349263041	0.2241693245916514	0.2179	1.4908240967671404	0.22558029813918085	0.1804	1.4591887479380965	0.22461299402995508	-0.0119	1.253500800473196	0.3758630776772319	0.0301	1.342524646045567	0.2756805873178344	0.129	1.41569010636705	0.19122401260606756	0.023	1.4145453275325282	0.17455050086527538	0.2179	1.4115372580551357	0.1621774606485667	0.1804	1.430810174785569	0.17543773911332464	-0.0119	1.1572824940141635	0.5112830902585358	0.0008	1.114151680696733	0.5588199273980271	0.0655	1.135874897242598	0.5334712979790449	0.1076	1.20013752475808	0.5307858661171009	-0.01275	1.282991767469086	0.5014105916169181	0.0702	1.3436643765258622	0.4600529050539835	0.1076	1.1398121304990079	0.46481704106119515	-0.01275	1.1709080969654313	0.38120667363114236	0.0702	1.2174976853239217	0.33464458152399146	0.1076
249	8.31271056661562	1.2767247036543217	0.3909080694001121	0.0301	1.294103114319646	0.41606494077166206	0.0301	1.3839732516359962	0.33942515770626885	0.129	1.4516321240228103	0.24646847753646164	0.023	1.4827349899368705	0.226939317980082	0.2179	1.4864850674350703	0.22857989220349617	0.1804	1.4581830728732448	0.2254344519374824	-0.0119	1.2528650490426039	0.3752399458939413	0.0301	1.342237348808307	0.2757414460314426	0.129	1.4156616600923801	0.19110243239890912	0.023	1.4147281607196396	0.17438707816086768	0.2179	1.4119659063032162	0.16237884230451433	0.1804	1.4299717834266032	0.17568862928239637	-0.0119	1.1566086342125823	0.5107537815893803	0.0008	1.113564320147107	0.5587439284798228	0.0655	1.135582600410279	0.5332236304891154	0.1076	1.1987134110624014	0.5304410733845816	-0.01275	1.281646736186707	0.5005358103057469	0.0702	1.3422468543654695	0.4595359400784661	0.1076	1.1387907283476961	0.4649976131627088	-0.01275	1.1704966042107785	0.3819424985716034	0.0702	1.2175788592857129	0.337957114747813	0.1076
250	8.346094946401225	1.2763740142770703	0.390562139662116	0.0301	1.2930117062958246	0.41605552302735876	0.0301	1.3827431467645817	0.33847528467984295	0.129	1.451189823920037	0.24663959501398344	0.023	1.4795503203050593	0.23078860463114412	0.2179	1.4832792788328986	0.23283590285084482	0.1804	1.4578381800229279	0.22576811032152538	-0.0119	1.2522109299086135	0.3746659813430585	0.0301	1.3417454864304064	0.2762203730908119	0.129	1.415770830639801	0.19098177732496383	0.023	1.4149198049497913	0.17433082057851734	0.2179	1.412192442654922	0.16256425715462636	0.1804	1.4292876540828259	0.17588030995319254	-0.0119	1.1564139692616615	0.5104423060935459	0.0008	1.1132682092494275	0.5589616328793459	0.0655	1.1361084715391903	0.5331960714759378	0.1076	1.1978869420458658	0.5301657241774823	-0.01275	1.2807110490484042	0.49971841608817985	0.0702	1.3413195473559942	0.4594519129008579	0.1076	1.1376662606845047	0.46549680046876063	-0.01275	1.170764020655824	0.3829075689097449	0.0702	1.218667132886275	0.34132917297893195	0.1076
251	8.37947932618683	1.2762062290403065	0.3902579030032357	0.0301	1.2923436125345138	0.4164250829485238	0.0301	1.381387378269402	0.3377050444348067	0.129	1.4507383393375912	0.24738576016490813	0.023	1.4779692548339363	0.23560315062102605	0.2179	1.4830000472511227	0.23706464136290925	0.1804	1.4578185754011426	0.22699950756548326	-0.0119	1.2512387785351535	0.37451904602224506	0.0301	1.3411416327360515	0.27668658593410084	0.129	1.4158182981679717	0.19096336513697612	0.023	1.4150399780502185	0.17436286697561293	0.2179	1.4122427773563444	0.16262824983307983	0.1804	1.4291534029587452	0.17577943539906893	-0.0119	1.1566634338725972	0.5103656554312164	0.0008	1.1133937202863322	0.5592475078282467	0.0655	1.136859916729822	0.5336323672943748	0.1076	1.1976945361139748	0.5302394516962702	-0.01275	1.2801516268270658	0.4989112525060041	0.0702	1.3404273555279496	0.45922989038123546	0.1076	1.136998394954984	0.4658313377077914	-0.01275	1.171568539032228	0.3845011038862812	0.0702	1.2210355411834615	0.3449733563491594	0.1076
252	8.412863705972434	1.276156903146278	0.38976934669503344	0.0301	1.2921300341671937	0.4166401929326171	0.0301	1.3792345291185804	0.33791340273735987	0.129	1.4496193063735874	0.25021689321103385	0.023	1.4771067614793372	0.24056398568390835	0.2179	1.4832331250421118	0.24142539387518883	0.1804	1.457212077475085	0.23060430708857135	-0.0119	1.2499759817073057	0.37474343631463575	0.0301	1.3405025211660322	0.2768521802782658	0.129	1.4156820134883459	0.19103383841436408	0.023	1.41508653728414	0.17449241546123673	0.2179	1.4122242924584827	0.16270486448102342	0.1804	1.4294590517718682	0.17546970067669554	-0.0119	1.1572084354093568	0.510538347191532	0.0008	1.114149728951942	0.5596654976197631	0.0655	1.13789310049229	0.5338500870318802	0.1076	1.1980941420842783	0.5303337879659213	-0.01275	1.2799444723876425	0.49827177524435123	0.0702	1.3398924838882666	0.45851924183598075	0.1076	1.137216699831798	0.4660197592272857	-0.01275	1.172378291670108	0.3864235038206293	0.0702	1.2244093334928403	0.3488588129413577	0.1076
